<svg width="100" height="100" viewBox="0 0 100 100" fill="none" xmlns="http://www.w3.org/2000/svg">
<path d="M31.0522 80.9775C22.462 89.4469 7.91344 89.4131 3.85043 78.1254C3.05495 75.9155 2.41894 73.6431 1.95115 71.3245C0.041183 61.8574 1.02145 52.0448 4.76799 43.127C8.51452 34.2095 14.8591 26.5874 22.9993 21.2249C31.1396 15.8623 40.71 13 50.5001 13C60.2902 13 69.8606 15.8623 78.0007 21.2249C86.1411 26.5874 92.4855 34.2095 96.2321 43.1273C99.9786 52.0448 100.959 61.8574 99.0489 71.3245C98.5812 73.6431 97.9451 75.9155 97.1494 78.1254C93.0865 89.4131 78.538 89.4469 69.9478 80.9775L56.6875 67.9038C55.4206 66.6548 55.5515 64.5949 55.901 62.8625C56.1133 61.8095 56.0043 60.7178 55.5875 59.7257C55.1707 58.7336 54.465 57.8856 53.5594 57.2892C52.6539 56.6927 51.5892 56.3742 50.5001 56.3742C49.411 56.3742 48.3464 56.6927 47.4408 57.2892C46.5349 57.8856 45.8293 58.7336 45.4124 59.7257C44.9956 60.7178 44.8866 61.8095 45.0992 62.8625C45.4487 64.5949 45.5793 66.6548 44.3124 67.9038L31.0522 80.9775Z" fill="white"/>
</svg>
