<svg width="56" height="56" viewBox="0 0 56 56" fill="none" xmlns="http://www.w3.org/2000/svg">
<rect width="56" height="56" rx="4" fill="#0066CC" fill-opacity="0.1"/>
<path d="M36.8444 22.2351L36.8319 25.8696H34.1912V13.6001H36.8569H37.1558H39.0742C40.6437 13.6001 41.441 14.0262 41.4534 14.8784V20.869C41.4534 21.7212 40.6935 22.1348 39.1614 22.1348H36.8569V22.2351H36.8444ZM38.8001 15.0163H36.8195V20.7061H38.8001V15.0163Z" fill="#BF7EE6"/>
<path d="M8.6299 25.8823L8.61745 29.5167H6.40015V17.2473H8.6299H8.87904H10.486C11.8064 17.2473 12.4666 17.6734 12.479 18.5256V24.5162C12.479 25.3685 11.8437 25.7821 10.5607 25.7821H8.6299V25.8823ZM10.2742 18.676H8.61745V24.3659H10.2742V18.676Z" fill="#BF7EE6"/>
<path d="M19.3055 25.7821H15.0951C13.8619 25.7821 13.239 25.3559 13.239 24.5037L13.2515 22.0097C13.2515 21.17 13.8868 20.7439 15.1698 20.7314H17.1006V18.676H15.4439L15.4314 19.804H13.264V18.5256C13.264 17.686 13.9117 17.2724 15.2072 17.2724L17.3747 17.2473C18.6577 17.2473 19.3055 17.6734 19.3055 18.5131V25.7821ZM15.4563 24.3533H17.1256L17.1131 22.1601H15.4563V24.3533Z" fill="#BF7EE6"/>
<path d="M24.1507 25.7821H22.2074C20.9243 25.7821 20.2891 25.3559 20.2891 24.5162V18.5256C20.3015 17.6734 20.9617 17.2473 22.2821 17.2473H23.8891H24.1631H26.368V28.251C26.368 29.1032 25.7202 29.5293 24.4372 29.5293H22.2323C20.9492 29.5293 20.3015 29.1032 20.3015 28.251V26.9852H22.5064V28.1131H24.1631V25.8823L24.1507 25.7821ZM22.4939 24.3533H24.1507V18.676H22.4939V24.3533Z" fill="#BF7EE6"/>
<path d="M33.1941 24.5037C33.1817 25.3559 32.5215 25.7695 31.2011 25.7695H29.0585C27.763 25.7695 27.1152 25.3434 27.1152 24.5037V18.5131C27.1152 17.6609 27.763 17.2473 29.0585 17.2473H31.2633C32.5464 17.2473 33.1817 17.6734 33.1817 18.5131V24.5037H33.1941ZM31.0017 18.676H29.3325V24.3659H30.9893L31.0017 18.676Z" fill="#BF7EE6"/>
<path d="M49.587 14.9408C49.587 14.0886 48.8272 13.675 47.295 13.675H44.6542C43.1095 13.675 42.3372 14.1012 42.3372 14.9408V25.8944H44.9781V22.1471H46.9711V25.2803C46.9711 33.3012 40.531 39.7806 32.5587 39.7806C27.9372 39.7806 23.814 37.5873 21.1732 34.191L22.4936 33.1758L17.187 29.5789L17.4237 37.1612L19.1178 35.8077C22.2321 39.8181 27.1026 42.3999 32.5587 42.3999C41.976 42.3999 49.5995 34.7173 49.5995 25.2552L49.587 14.9408ZM46.9587 20.7184H44.9656V15.0787H46.9587V20.7184Z" fill="#BF7EE6"/>
</svg>
