<svg width="255" height="46" viewBox="0 0 255 46" fill="none" xmlns="http://www.w3.org/2000/svg">
<g clip-path="url(#clip0_1272_4337)">
<path d="M18.2652 42.1506C13.0442 47.4022 4.20188 47.3813 1.73245 40.3822C1.24897 39.0118 0.862407 37.6028 0.578093 36.1652C-0.582754 30.2949 0.0130355 24.2104 2.29012 18.6808C4.56721 13.1513 8.42331 8.42513 13.3708 5.09997C18.3184 1.7748 24.1351 -2.5638e-07 30.0854 0C36.0357 2.56381e-07 41.8524 1.7748 46.7998 5.09997C51.7474 8.42513 55.6034 13.1513 57.8805 18.681C60.1576 24.2104 60.7533 30.2949 59.5926 36.1652C59.3083 37.6028 58.9217 39.0118 58.4381 40.3822C55.9687 47.3813 47.1264 47.4022 41.9053 42.1506L33.846 34.0441C33.076 33.2696 33.1555 31.9923 33.368 30.9181C33.497 30.2652 33.4307 29.5883 33.1774 28.9731C32.9241 28.3579 32.4952 27.8321 31.9448 27.4623C31.3944 27.0924 30.7473 26.8949 30.0854 26.8949C29.4234 26.8949 28.7764 27.0924 28.226 27.4623C27.6754 27.8321 27.2465 28.3579 26.9932 28.9731C26.7398 29.5883 26.6736 30.2652 26.8028 30.9181C27.0152 31.9923 27.0946 33.2696 26.3246 34.0441L18.2652 42.1506Z" fill="url(#paint0_linear_1272_4337)"/>
<path d="M78.2017 6.90341H86.909L94.2954 24.9148H94.6363L102.023 6.90341H110.73V35.9943H103.883V18.125H103.642L96.6534 35.8097H92.2784L85.2897 18.0256H85.0483V35.9943H78.2017V6.90341Z" fill="#3A3B7B"/>
<path d="M125.3 36.4062C123.009 36.4062 121.039 35.9375 119.391 35C117.753 34.053 116.489 32.7367 115.599 31.0511C114.718 29.3561 114.278 27.3911 114.278 25.1562C114.278 22.9119 114.718 20.947 115.599 19.2614C116.489 17.5663 117.753 16.25 119.391 15.3125C121.039 14.3655 123.009 13.892 125.3 13.892C127.592 13.892 129.557 14.3655 131.195 15.3125C132.843 16.25 134.107 17.5663 134.988 19.2614C135.878 20.947 136.323 22.9119 136.323 25.1562C136.323 27.3911 135.878 29.3561 134.988 31.0511C134.107 32.7367 132.843 34.053 131.195 35C129.557 35.9375 127.592 36.4062 125.3 36.4062ZM125.343 31.1648C126.176 31.1648 126.882 30.9091 127.459 30.3977C128.037 29.8864 128.477 29.1761 128.78 28.267C129.093 27.358 129.249 26.3068 129.249 25.1136C129.249 23.9015 129.093 22.8409 128.78 21.9318C128.477 21.0227 128.037 20.3125 127.459 19.8011C126.882 19.2898 126.176 19.0341 125.343 19.0341C124.481 19.0341 123.752 19.2898 123.155 19.8011C122.568 20.3125 122.119 21.0227 121.806 21.9318C121.503 22.8409 121.352 23.9015 121.352 25.1136C121.352 26.3068 121.503 27.358 121.806 28.267C122.119 29.1761 122.568 29.8864 123.155 30.3977C123.752 30.9091 124.481 31.1648 125.343 31.1648Z" fill="#3A3B7B"/>
<path d="M146.827 23.5511V35.9943H139.881V14.1761H146.486V18.1818H146.728C147.211 16.8466 148.035 15.8002 149.2 15.0426C150.364 14.2756 151.752 13.892 153.361 13.892C154.896 13.892 156.226 14.2377 157.353 14.929C158.489 15.6108 159.37 16.5672 159.995 17.7983C160.629 19.0199 160.942 20.4498 160.932 22.0881V35.9943H153.986V23.4517C153.996 22.2396 153.688 21.2926 153.063 20.6108C152.448 19.929 151.591 19.5881 150.492 19.5881C149.763 19.5881 149.119 19.7491 148.56 20.071C148.011 20.3835 147.585 20.8333 147.282 21.4205C146.988 22.0076 146.837 22.7178 146.827 23.5511Z" fill="#3A3B7B"/>
<path d="M175.432 36.4062C173.15 36.4062 171.18 35.9564 169.523 35.0568C167.875 34.1477 166.606 32.8551 165.716 31.179C164.835 29.4934 164.395 27.4905 164.395 25.1705C164.395 22.9167 164.84 20.947 165.73 19.2614C166.62 17.5663 167.875 16.25 169.494 15.3125C171.114 14.3655 173.022 13.892 175.219 13.892C176.772 13.892 178.192 14.1335 179.48 14.6165C180.768 15.0994 181.881 15.8144 182.818 16.7614C183.756 17.7083 184.485 18.8778 185.006 20.2699C185.526 21.6525 185.787 23.2386 185.787 25.0284V26.7614H166.824V22.7273H179.324C179.314 21.9886 179.139 21.3305 178.798 20.7528C178.457 20.1752 177.989 19.7254 177.392 19.4034C176.805 19.072 176.128 18.9063 175.361 18.9063C174.584 18.9063 173.888 19.0814 173.273 19.4318C172.657 19.7727 172.169 20.2415 171.81 20.8381C171.45 21.4252 171.26 22.0928 171.241 22.8409V26.946C171.241 27.8362 171.417 28.6174 171.767 29.2898C172.117 29.9527 172.615 30.4688 173.258 30.8381C173.902 31.2074 174.669 31.392 175.56 31.392C176.175 31.392 176.734 31.3068 177.236 31.1364C177.738 30.9659 178.169 30.715 178.528 30.3835C178.888 30.0521 179.158 29.6449 179.338 29.1619L185.716 29.3466C185.451 30.7765 184.868 32.0218 183.969 33.0824C183.079 34.1335 181.909 34.9527 180.46 35.5398C179.011 36.1174 177.335 36.4062 175.432 36.4062Z" fill="#3A3B7B"/>
<path d="M192.996 44.1761C192.162 44.1761 191.376 44.1099 190.638 43.9773C189.899 43.8542 189.265 43.6884 188.734 43.4801L190.268 38.4375C190.95 38.6648 191.566 38.7973 192.115 38.8352C192.674 38.8731 193.152 38.7831 193.55 38.5653C193.957 38.357 194.269 37.983 194.487 37.4432L194.757 36.7898L187.001 14.1761H194.274L198.294 29.7443H198.521L202.598 14.1761H209.913L201.689 38.0824C201.291 39.2756 200.728 40.3267 199.999 41.2358C199.279 42.1544 198.346 42.8741 197.2 43.3949C196.064 43.9157 194.662 44.1761 192.996 44.1761Z" fill="#3A3B7B"/>
<path d="M219.523 6.90341V35.9943H212.577V6.90341H219.523Z" fill="#3A3B7B"/>
<path d="M223.944 35.9943V14.1761H230.89V35.9943H223.944ZM227.424 11.6335C226.449 11.6335 225.611 11.3116 224.91 10.6676C224.209 10.0142 223.859 9.22822 223.859 8.30966C223.859 7.40057 224.209 6.62405 224.91 5.98011C225.611 5.3267 226.449 5 227.424 5C228.409 5 229.247 5.3267 229.938 5.98011C230.639 6.62405 230.989 7.40057 230.989 8.30966C230.989 9.22822 230.639 10.0142 229.938 10.6676C229.247 11.3116 228.409 11.6335 227.424 11.6335Z" fill="#3A3B7B"/>
<path d="M241.462 36.3636C240.07 36.3636 238.834 36.1316 237.754 35.6676C236.684 35.1941 235.837 34.4839 235.212 33.5369C234.596 32.5805 234.288 31.3826 234.288 29.9432C234.288 28.7311 234.501 27.7083 234.928 26.875C235.354 26.0417 235.941 25.3646 236.689 24.8438C237.437 24.3229 238.299 23.9299 239.274 23.6648C240.249 23.3902 241.291 23.2055 242.399 23.1108C243.64 22.9972 244.639 22.8788 245.396 22.7557C246.154 22.6231 246.703 22.4384 247.044 22.2017C247.394 21.9555 247.57 21.6098 247.57 21.1648V21.0938C247.57 20.3646 247.319 19.8011 246.817 19.4034C246.315 19.0057 245.638 18.8068 244.785 18.8068C243.867 18.8068 243.128 19.0057 242.57 19.4034C242.011 19.8011 241.656 20.3504 241.504 21.0511L235.098 20.8239C235.287 19.4981 235.775 18.3144 236.561 17.2727C237.356 16.2216 238.446 15.3977 239.828 14.8011C241.22 14.1951 242.892 13.892 244.842 13.892C246.234 13.892 247.517 14.0578 248.692 14.3892C249.866 14.7112 250.889 15.1847 251.76 15.8097C252.631 16.4252 253.303 17.1828 253.777 18.0824C254.26 18.982 254.501 20.0095 254.501 21.1648V35.9943H247.967V32.9545H247.797C247.409 33.6932 246.911 34.3182 246.305 34.8295C245.709 35.3409 245.003 35.7244 244.189 35.9801C243.384 36.2358 242.475 36.3636 241.462 36.3636ZM243.606 31.8182C244.355 31.8182 245.027 31.6667 245.624 31.3636C246.23 31.0606 246.713 30.6439 247.072 30.1136C247.432 29.5739 247.612 28.9489 247.612 28.2386V26.1648C247.413 26.2689 247.172 26.3636 246.888 26.4489C246.613 26.5341 246.31 26.6146 245.979 26.6903C245.647 26.7661 245.306 26.8324 244.956 26.8892C244.606 26.946 244.269 26.9981 243.947 27.0455C243.294 27.1496 242.735 27.3106 242.271 27.5284C241.817 27.7462 241.466 28.0303 241.22 28.3807C240.983 28.7216 240.865 29.1288 240.865 29.6023C240.865 30.322 241.121 30.8712 241.632 31.25C242.153 31.6288 242.811 31.8182 243.606 31.8182Z" fill="#3A3B7B"/>
</g>
<defs>
<linearGradient id="paint0_linear_1272_4337" x1="60.1706" y1="45.885" x2="51.3494" y2="-8.35164" gradientUnits="userSpaceOnUse">
<stop stop-color="#64C2DB"/>
<stop offset="0.510417" stop-color="#7476ED"/>
<stop offset="1" stop-color="#E56F8C"/>
</linearGradient>
<clipPath id="clip0_1272_4337">
<rect width="255" height="46" fill="white"/>
</clipPath>
</defs>
</svg>
