<svg width="335" height="334" viewBox="0 0 335 334" fill="none" xmlns="http://www.w3.org/2000/svg">
<path d="M120.157 232.106C99.2458 253.051 63.8297 252.968 53.9389 225.053C52.0025 219.588 50.4542 213.969 49.3154 208.235C44.6659 184.823 47.0522 160.557 56.1726 138.503C65.2929 116.451 80.7377 97.6014 100.554 84.3398C120.37 71.0783 143.668 64 167.5 64C191.333 64 214.63 71.0783 234.446 84.3398C254.263 97.6014 269.707 116.451 278.828 138.504C287.948 160.557 290.334 184.823 285.685 208.235C284.546 213.969 282.998 219.588 281.061 225.053C271.17 252.968 235.754 253.051 214.843 232.106L182.563 199.776C179.479 196.687 179.797 191.593 180.648 187.309C181.165 184.704 180.899 182.005 179.885 179.551C178.87 177.098 177.152 175.001 174.948 173.526C172.743 172.051 170.152 171.263 167.5 171.263C164.849 171.263 162.257 172.051 160.053 173.526C157.848 175.001 156.13 177.098 155.115 179.551C154.1 182.005 153.835 184.704 154.353 187.309C155.203 191.593 155.521 196.687 152.437 199.776L120.157 232.106Z" fill="#C4C5F1"/>
<path d="M129.246 61.0079C129.246 101.095 131.702 133.638 136.087 164.866C138.193 162.41 170.122 150.13 182.666 149.164C200.648 147.761 217.753 158.814 235.472 162.059C197.315 76.0953 223.016 -6.35944 129.246 61.0079Z" fill="#3A3B7B"/>
<path d="M195.385 270.039C239.946 322.495 264.419 301.969 267.576 298.811C296.084 270.303 245.647 158.814 223.894 142.848C204.157 128.375 131.087 135.13 118.105 161.444C102.492 193.023 99.1584 224.864 99.1584 270.215L195.385 270.039Z" fill="white"/>
<path d="M249.77 305.916C249.331 305.916 248.892 305.916 248.454 305.916C232.49 305.303 214.507 293.285 195.034 270.391L195.735 269.864C214.77 292.232 233.016 304.425 248.542 305.039C259.77 305.478 266.174 299.776 267.314 298.636C273.892 292.056 276.611 280.478 275.383 264.338C272.05 220.655 239.77 155.13 223.63 143.375C212.314 135.042 181.526 133.551 155.122 140.042C136.175 144.691 123.106 152.41 118.456 161.795C102.667 193.726 99.509 225.83 99.509 270.391H98.6318C98.6318 225.655 101.702 193.55 117.667 161.358C122.403 151.708 135.649 143.814 154.859 139.076C181.526 132.586 212.578 134.164 224.068 142.586C232.226 148.55 244.331 167.672 255.032 191.356C266.963 217.76 274.682 244.339 276.173 264.251C277.402 280.654 274.594 292.408 267.84 299.25C266.787 300.303 260.647 305.916 249.77 305.916Z" fill="#3A3B7B"/>
<path d="M183.043 109.014L154.943 111.872L158.653 148.352L186.754 145.494L183.043 109.014Z" fill="white"/>
<path d="M158.105 148.375L154.421 111.446L183.279 108.463L187.051 145.392L186.174 145.48L182.578 109.428L155.298 112.235L158.982 148.287L158.105 148.375Z" fill="#3A3B7B"/>
<path d="M194.683 69.9552C196.612 67.4113 200.296 66.5343 203.279 67.5869C206.262 68.6395 208.543 71.3587 209.419 74.4288C210.296 77.4989 209.946 80.8322 208.806 83.8146C207.49 87.2357 205.209 90.3058 202.139 92.2355C199.068 94.1654 195.21 95.0426 191.7 94.3409C195.297 86.797 196.525 78.2006 194.683 69.9552Z" fill="white"/>
<path d="M194.245 95.0424C193.367 95.0424 192.49 94.9547 191.613 94.7792L191.087 94.6915L191.35 94.1653C195.034 86.3583 196.087 77.8497 194.333 70.0428L194.245 69.8674L194.333 69.692C196.35 67.0604 200.122 66.0078 203.455 67.1482C206.438 68.2008 208.894 70.9201 209.858 74.2533C210.735 77.148 210.473 80.569 209.245 83.9023C207.841 87.4987 205.473 90.5689 202.402 92.5863C199.946 94.253 197.051 95.0424 194.245 95.0424ZM192.315 94.0775C195.561 94.6038 198.982 93.8143 201.963 91.9723C204.858 90.1302 207.139 87.1478 208.455 83.7267C209.683 80.5689 209.858 77.4111 209.069 74.6042C208.191 71.5341 205.911 68.9902 203.191 68.113C200.297 67.1481 196.963 67.9376 195.21 70.1305C196.876 77.8497 195.911 86.2706 192.315 94.0775Z" fill="#3A3B7B"/>
<path d="M194.069 59.4289C196.876 76.7094 197.139 101.797 182.841 114.867C175.473 121.533 164.947 123.024 156.175 118.287C137.754 108.375 134.859 79.4286 135.123 61.3586C135.21 57.5867 136.175 53.9027 138.018 50.6571C152.666 25.1312 187.578 28.1136 194.069 59.4289Z" fill="white"/>
<path d="M167.052 121.446C163.28 121.446 159.421 120.568 155.999 118.638C136.79 108.288 134.421 78.2881 134.771 61.2708C134.859 57.4112 135.912 53.6394 137.754 50.3938C144.771 38.1133 157.403 31.4469 169.947 33.3766C182.315 35.3065 191.526 45.0431 194.507 59.3411C196.438 71.2708 199.244 100.481 183.192 115.13C178.631 119.252 172.929 121.446 167.052 121.446ZM165.561 33.903C154.859 33.903 144.596 40.2186 138.456 50.8325C136.702 53.9903 135.649 57.5867 135.562 61.2708C135.298 74.7795 136.877 107.323 156.35 117.849C164.859 122.41 175.298 121.095 182.49 114.515C198.192 100.13 195.472 71.2707 193.543 59.5166C190.648 45.6571 181.701 36.1837 169.683 34.2538C168.367 34.0785 166.964 33.903 165.561 33.903Z" fill="#3A3B7B"/>
<path d="M160.298 86.9726C158.543 86.2709 156.877 85.1305 155.561 83.727L155.21 83.3762L155.649 83.113C159.509 80.3059 161.877 75.7446 162.139 71.0078C162.403 66.271 160.473 61.4466 156.965 58.2888L157.578 57.6748C161.262 61.0958 163.281 66.0957 163.017 71.0957C162.754 75.9202 160.386 80.5691 156.526 83.5515C157.666 84.6919 159.07 85.5691 160.561 86.1831L160.298 86.9726ZM164.157 27.4118C165.385 40.2186 159.683 45.2186 153.982 51.0079C148.193 56.885 137.491 59.692 129.333 61.0078C129.947 52.6746 133.457 44.6045 139.07 38.4642C144.597 32.324 154.859 27.2364 164.157 27.4118ZM159.07 103.2V102.323C164.859 102.148 170.385 99.6913 174.245 95.5686L174.859 96.1827C170.824 100.481 165.122 103.025 159.07 103.2Z" fill="#3A3B7B"/>
<path d="M161.263 28.026C169.421 25.4821 178.631 27.1489 185.911 31.6225C193.191 36.0961 198.718 43.0257 202.49 50.7449C206.262 58.4641 208.367 66.7972 209.858 75.2182C200.999 66.3587 192.841 70.2183 185.823 64.6044C183.017 62.4114 161.263 51.1835 161.263 28.026ZM149.333 75.9199C150.835 75.9199 152.053 74.7024 152.053 73.2006C152.053 71.6987 150.835 70.4813 149.333 70.4813C147.831 70.4813 146.614 71.6987 146.614 73.2006C146.614 74.7024 147.831 75.9199 149.333 75.9199ZM176.087 186.971L175.823 186.883C175.473 186.708 138.281 172.322 127.842 150.656L128.631 150.304C138.455 170.743 172.666 184.69 175.911 186.006C178.718 183.462 210.648 154.779 213.894 138.375L214.771 138.551C211.35 155.919 177.754 185.567 176.262 186.795L176.087 186.971Z" fill="#3A3B7B"/>
<path d="M193.367 198.374C190.648 163.814 175.298 170.831 182.315 204.251C178.016 203.812 162.929 199.427 162.49 206.532C162.49 208.812 163.806 211.619 166.35 211.795C161.087 212.058 159.508 221.006 162.578 223.111C163.192 223.55 155.298 226.092 162.315 231.882C164.859 233.9 158.28 232.935 159.333 238.198C160.473 243.724 183.806 243.198 187.402 244.69C188.806 244.69 193.104 244.338 193.718 243.11C209.156 216.532 223.455 231.356 199.42 210.655C195.911 207.496 193.718 203.111 193.367 198.374Z" fill="white"/>
<path d="M187.315 244.952C186.174 244.426 182.929 244.163 179.245 243.9C170.561 243.198 159.771 242.233 158.894 238.111C158.192 234.777 160.298 233.724 161.614 233.023C161.877 232.847 162.403 232.584 162.403 232.496C162.403 232.496 162.315 232.321 161.964 232.058C159.859 230.303 158.806 228.636 158.894 227.146C158.982 225.216 160.736 223.9 161.702 223.286C161.789 223.199 161.877 223.198 161.964 223.111C160.473 221.707 160.298 218.724 160.999 216.356C161.701 214.076 163.017 212.408 164.683 211.707C162.929 210.655 162.052 208.286 162.052 206.444C162.139 205.128 162.666 204.163 163.543 203.462C166.789 200.918 174.245 202.322 179.245 203.287C180.21 203.462 180.999 203.638 181.701 203.724C178.455 188.111 180.21 178.375 183.279 175.831C184.157 175.128 185.122 174.954 186.174 175.392C189.069 176.62 192.578 183.287 193.718 198.374C194.069 203.023 196.174 207.234 199.683 210.216C201.174 211.444 202.49 212.584 203.63 213.638C210.472 219.427 212.753 221.444 212.666 223.198C212.578 224.426 211.438 225.216 209.507 226.444C205.999 228.812 200.21 232.672 194.069 243.198C193.104 244.864 187.403 244.952 187.315 244.952ZM169.333 202.935C167.139 202.935 165.21 203.287 164.07 204.163C163.367 204.778 162.929 205.479 162.929 206.532C162.929 208.374 163.982 211.18 166.35 211.356V212.234C164.245 212.322 162.578 213.988 161.789 216.707C161.087 219.251 161.526 221.883 162.754 222.76L162.929 222.847V223.111C162.929 223.462 162.666 223.636 162.139 223.988C161.263 224.602 159.771 225.655 159.683 227.146C159.596 228.374 160.561 229.864 162.491 231.356C162.842 231.619 163.28 232.058 163.192 232.584C163.105 233.111 162.578 233.462 161.877 233.812C160.648 234.426 159.07 235.303 159.595 237.935C160.298 241.356 171.614 242.32 179.157 243.023C183.016 243.374 186.087 243.636 187.315 244.075C189.42 244.075 192.754 243.548 193.192 242.759C199.419 232.058 205.384 228.111 208.894 225.655C210.56 224.514 211.612 223.812 211.7 223.023C211.788 221.707 209.069 219.339 203.016 214.251C201.788 213.199 200.472 212.146 199.069 210.83C195.385 207.672 193.192 203.287 192.841 198.374C191.7 183.726 188.279 177.234 185.823 176.182C185.122 175.918 184.42 176.006 183.806 176.532C180.823 178.988 179.508 189.251 182.666 204.163L182.754 204.778L182.139 204.69C181.35 204.602 180.298 204.427 178.982 204.163C176.438 203.638 172.578 202.935 169.333 202.935ZM174.508 74.7796C176.009 74.7796 177.227 73.5622 177.227 72.0603C177.227 70.5585 176.009 69.3411 174.508 69.3411C173.007 69.3411 171.789 70.5585 171.789 72.0603C171.789 73.5622 173.007 74.7796 174.508 74.7796Z" fill="#3A3B7B"/>
<path d="M123.146 285.157C123.235 279.103 115.101 274.073 104.977 273.922C94.8525 273.772 86.5726 278.559 86.4829 284.615C86.3933 290.669 94.5277 295.699 104.652 295.849C114.776 296 123.056 291.212 123.146 285.157Z" fill="white"/>
<path d="M105.035 296.355C104.86 296.355 104.685 296.355 104.597 296.355C94.2461 296.18 85.9131 290.916 86.0007 284.688C86.0884 278.373 94.597 273.373 104.948 273.548C115.298 273.724 123.631 278.987 123.545 285.215C123.457 291.355 115.211 296.355 105.035 296.355ZM104.597 295.478C114.509 295.653 122.579 291.004 122.667 285.215C122.754 279.425 114.773 274.601 104.948 274.426C95.0355 274.25 86.9656 278.899 86.8779 284.688C86.7902 290.478 94.7725 295.303 104.597 295.478Z" fill="#3A3B7B"/>
<path d="M90.6497 291.881C90.6497 291.267 90.6497 290.39 90.6497 289.513C90.6497 288.636 90.6497 287.846 90.6497 287.144H91.5268C91.5268 287.759 91.5268 288.636 91.5268 289.513C91.5268 290.39 91.5268 291.179 91.5268 291.881H90.6497ZM98.9828 294.952C98.9828 294.163 98.9828 293.197 98.8951 292.32C98.8951 291.355 98.8073 290.478 98.8073 289.688H99.6845C99.6845 290.478 99.6846 291.443 99.7723 292.32C99.7723 293.285 99.86 294.163 99.86 294.952H98.9828ZM107.316 295.828C107.228 294.075 107.053 292.32 106.79 290.566L107.667 290.39C107.93 292.144 108.105 293.987 108.193 295.741L107.316 295.828Z" fill="#3A3B7B"/>
<path d="M123.176 282.317C123.242 277.86 115.089 274.126 104.965 273.976C94.8406 273.825 86.5798 277.317 86.5138 281.773C86.4478 286.23 94.6015 289.964 104.726 290.115C114.849 290.264 123.11 286.773 123.176 282.317Z" fill="white"/>
<path d="M105.299 290.566C105.123 290.566 104.86 290.566 104.685 290.566C94.1584 290.39 85.913 286.531 86.0007 281.794C86.0883 276.97 94.3337 273.372 104.948 273.548C109.947 273.636 114.597 274.513 118.106 276.18C121.702 277.847 123.719 280.039 123.631 282.408C123.543 284.776 121.526 286.882 117.93 288.46C114.509 289.776 110.035 290.566 105.299 290.566ZM104.685 289.688C109.509 289.776 114.07 288.987 117.491 287.583C120.825 286.18 122.667 284.338 122.667 282.32C122.667 280.303 120.912 278.46 117.667 276.97C114.246 275.391 109.772 274.513 104.948 274.426C95.2109 274.25 86.9654 277.671 86.9654 281.794C86.8777 285.916 94.9479 289.513 104.685 289.688Z" fill="#3A3B7B"/>
<path d="M120.984 282.283C121.038 278.602 113.856 275.511 104.944 275.379C96.0308 275.246 88.7612 278.124 88.7066 281.806C88.6521 285.486 95.8334 288.578 104.746 288.711C113.659 288.842 120.929 285.965 120.984 282.283Z" fill="white"/>
<path d="M105.299 289.075C105.123 289.075 104.86 289.075 104.685 289.075C100.299 288.987 96.2636 288.284 93.1058 286.969C89.9479 285.566 88.1937 283.723 88.1937 281.794C88.2814 277.847 95.562 274.776 104.86 274.951C114.158 275.127 121.351 278.284 121.351 282.232C121.351 286.179 114.334 289.075 105.299 289.075ZM104.334 275.828C96.0882 275.828 89.1585 278.548 89.1585 281.794C89.1585 283.372 90.7374 284.951 93.5443 286.179C96.5267 287.495 100.474 288.197 104.772 288.284C113.281 288.46 120.474 285.654 120.562 282.32C120.649 278.987 113.457 276.004 104.948 275.916C104.684 275.828 104.509 275.828 104.334 275.828ZM114.509 293.811C114.421 293.11 114.334 292.32 114.246 291.443C114.158 290.653 114.07 289.776 113.982 289.075L114.859 288.987C114.947 289.688 115.035 290.478 115.123 291.355C115.211 292.144 115.298 293.022 115.386 293.723L114.509 293.811ZM120.85 286.67L120.001 286.889L120.831 290.117L121.681 289.899L120.85 286.67ZM87.7551 288.284H86.8779C86.8779 287.144 86.9657 286.092 87.1411 284.951L88.0183 285.127C87.8429 286.092 87.7551 287.232 87.7551 288.284Z" fill="#3A3B7B"/>
<path d="M105.649 284.6C103.369 284.6 100.912 283.987 99.6843 282.846C98.7195 281.969 98.6319 280.828 99.4214 279.688L100.123 280.215C99.5966 281.004 99.5968 281.618 100.299 282.232C102.141 283.899 107.667 284.338 109.333 282.846C109.596 282.583 110.386 281.969 109.246 280.303L109.947 279.776C111.263 281.794 110.474 282.934 109.86 283.46C109.07 284.25 107.404 284.6 105.649 284.6Z" fill="#3A3B7B"/>
<path d="M261.612 255.742C242.402 234.602 235.034 230.83 214.419 217.584C213.279 216.795 211.7 217.058 210.823 218.111C202.051 228.812 180.122 247.408 181.175 251.531C182.578 257.058 190.648 264.776 195.56 270.127L261.612 255.742Z" fill="white"/>
<path d="M195.297 270.566C194.419 269.601 193.543 268.636 192.49 267.584C187.754 262.584 181.964 256.356 180.736 251.707C180.034 249.075 186.35 242.584 196.701 232.32C201.788 227.234 207.139 221.97 210.472 217.935C211.525 216.707 213.279 216.444 214.683 217.234C216.525 218.374 218.279 219.514 219.858 220.567C236.699 231.268 244.419 236.18 261.963 255.479L261.348 256.092C243.892 236.882 236.262 232.058 219.419 221.356C217.753 220.303 216.086 219.251 214.244 218.023C213.279 217.408 211.963 217.584 211.262 218.462C207.928 222.584 202.578 227.847 197.49 232.935C189.858 240.567 181.174 249.163 181.789 251.531C182.929 256.004 188.718 262.057 193.279 266.97C194.245 268.022 195.21 268.987 196.086 269.952L195.297 270.566ZM165.433 211.34L165.343 212.212L175.465 213.248L175.555 212.375L165.433 211.34ZM171.262 224.339C168.193 224.339 165.21 224.075 162.227 223.462L162.403 222.584C165.298 223.199 168.28 223.462 171.262 223.462V224.339ZM171.175 234.514C168.192 234.163 165.122 233.549 162.227 232.584L162.491 231.707C165.298 232.584 168.28 233.286 171.262 233.549L171.175 234.514ZM175.385 162.848H175.21C175.034 162.848 153.193 158.462 145.21 142.41L145.999 142.059C153.368 156.883 173.017 161.444 175.122 161.971C176.876 160.567 193.192 147.498 195.648 135.568L196.526 135.743C193.894 148.55 176.262 162.147 175.561 162.76L175.385 162.848Z" fill="#3A3B7B"/>
<path d="M176.175 178.023L174.683 177.672C173.543 177.41 145.649 170.041 134.684 147.234L140.21 144.603C148.631 162.059 169.07 169.515 174.771 171.27C179.859 166.971 199.156 149.954 201.963 135.831L208.016 137.059C204.419 155.392 178.455 176.182 177.403 177.059L176.175 178.023ZM195.39 269.66L73.0237 269.899L73.0254 270.776L195.392 270.537L195.39 269.66Z" fill="#3A3B7B"/>
<path d="M104.158 307.144C103.807 307.144 103.369 307.144 103.018 307.144C84.5094 306.793 64.773 298.811 62.5801 281.794C60.0362 262.496 52.4048 203.9 68.2817 192.146C70.2115 190.743 72.9308 190.304 75.4745 189.954C77.9306 189.603 80.2989 189.251 81.7024 188.023C82.4918 187.322 82.2286 179.778 82.1409 176.532C82.0533 172.586 82.0534 172.586 82.492 172.586C82.7551 172.586 82.8429 172.672 82.9306 172.76C98.8952 171.356 129.334 173.55 129.684 173.55H130.123L130.035 173.988C130.035 174.076 128.895 181.883 130.298 186.532C131.087 189.164 134.07 189.603 137.491 190.216C142.14 191.006 147.842 191.883 149.947 198.726C154.596 213.988 147.052 263.987 143.631 284.776C141.087 300.215 121.614 307.144 104.158 307.144ZM82.9306 173.638C82.9306 174.251 82.9304 175.392 83.0181 176.532C83.2813 183.988 83.1938 187.848 82.3166 188.638C80.7377 190.042 78.2814 190.392 75.65 190.743C73.1938 191.094 70.5622 191.444 68.8079 192.76C53.2819 204.163 60.9134 262.496 63.4572 281.619C65.6502 298.197 84.948 305.916 103.018 306.267C120.386 306.531 140.21 299.952 142.754 284.688C146.175 263.899 153.719 214.076 149.158 198.988C147.227 192.76 142.052 191.883 137.403 191.094C133.807 190.479 130.474 189.954 129.509 186.883C128.193 182.672 128.895 176.182 129.158 174.427C125.21 174.076 97.6671 172.322 82.9306 173.638Z" fill="#3A3B7B"/>
<path d="M83.5447 174.866L78.7202 160.655C77.843 158.199 79.7728 155.567 82.4043 155.655L130.562 156.358C133.281 156.358 135.035 159.164 133.982 161.62L128.369 175.128C127.754 176.532 126.351 177.498 124.859 177.498H87.1412C85.4746 177.41 84.071 176.444 83.5447 174.866ZM75.7042 245.857L75.084 246.479L85.07 256.464L85.6904 255.844L75.7042 245.857ZM104.772 246.092H103.895V254.338H104.772V246.092ZM134.137 245.643L123.915 255.641L124.529 256.268L134.75 246.269L134.137 245.643ZM197.666 272.144L193.105 268.022C203.542 256.443 210.385 245.215 217.665 233.374C219.595 230.215 221.613 226.97 223.718 223.548L228.893 226.795C226.787 230.128 224.77 233.374 222.841 236.531C215.473 248.724 208.455 260.127 197.666 272.144Z" fill="#3A3B7B"/>
</svg>
