<svg width="50" height="50" viewBox="0 0 50 50" fill="none" xmlns="http://www.w3.org/2000/svg">
<path d="M34.2128 18.995L34.1998 22.7809H31.449V10.0002H34.2258H34.5372H36.5355C38.1704 10.0002 39.0009 10.4441 39.0139 11.3318V17.5721C39.0139 18.4597 38.2223 18.8906 36.6263 18.8906H34.2258V18.995H34.2128ZM36.25 11.4754H34.1869V17.4023H36.25V11.4754Z" fill="white"/>
<path d="M4.82266 22.7939L4.80969 26.5797H2.5V13.7991H4.82266H5.08218H6.75606C8.13149 13.7991 8.81919 14.2429 8.83219 15.1307V21.3709C8.83219 22.2586 8.17041 22.6894 6.83391 22.6894H4.82266V22.7939ZM6.53547 15.2873H4.80969V21.2142H6.53547V15.2873Z" fill="white"/>
<path d="M15.9433 22.6894H11.5575C10.2728 22.6894 9.62402 22.2455 9.62402 21.3578L9.63702 18.7599C9.63702 17.8852 10.2988 17.4414 11.6353 17.4283H13.6465V15.2873H11.9208L11.9078 16.4622H9.65002V15.1307C9.65002 14.256 10.3248 13.8252 11.6742 13.8252L13.932 13.7991C15.2685 13.7991 15.9433 14.2429 15.9433 15.1176V22.6894ZM11.9337 21.2012H13.6725L13.6595 18.9165H11.9337V21.2012Z" fill="white"/>
<path d="M20.9903 22.6894H18.966C17.6295 22.6894 16.9678 22.2455 16.9678 21.3709V15.1307C16.9808 14.2429 17.6685 13.7991 19.0439 13.7991H20.7178H21.0032H23.3V25.2612C23.3 26.1489 22.6252 26.5928 21.2887 26.5928H18.992C17.6555 26.5928 16.9808 26.1489 16.9808 25.2612V23.9427H19.2775V25.1176H21.0032V22.7939L20.9903 22.6894ZM19.2645 21.2012H20.9903V15.2873H19.2645V21.2012Z" fill="white"/>
<path d="M30.4106 21.3578C30.3976 22.2455 29.7099 22.6764 28.3344 22.6764H26.1026C24.7531 22.6764 24.0784 22.2325 24.0784 21.3578V15.1176C24.0784 14.2299 24.7531 13.7991 26.1026 13.7991H28.3993C29.7358 13.7991 30.3976 14.2429 30.3976 15.1176V21.3578H30.4106ZM28.1268 15.2873H26.3881V21.2142H28.1139L28.1268 15.2873Z" fill="white"/>
<path d="M47.4866 11.3969C47.4866 10.5092 46.6951 10.0784 45.0991 10.0784H42.3482C40.7392 10.0784 39.9347 10.5222 39.9347 11.3969V22.8069H42.6856V18.9034H44.7617V22.1672C44.7617 30.5222 38.0532 37.2716 29.7487 37.2716C24.9347 37.2716 20.6397 34.987 17.8888 31.4491L19.2643 30.3917L13.7366 26.6449L13.9831 34.5431L15.7478 33.1332C18.9918 37.3107 24.0653 40 29.7487 40C39.5584 40 47.4996 31.9974 47.4996 22.141L47.4866 11.3969ZM44.7487 17.4152H42.6726V11.5405H44.7487V17.4152Z" fill="white"/>
</svg>
