<svg width="40" height="41" viewBox="0 0 40 41" fill="none" xmlns="http://www.w3.org/2000/svg">
<path fill-rule="evenodd" clip-rule="evenodd" d="M30.5454 30.8637H33.6363C36.909 31.1667 39.3938 34.0152 39.3938 37.3485V39.2879C39.3938 39.6515 39.1514 39.894 38.7878 39.894H15.6363C15.2726 39.894 15.0302 39.6515 15.0302 39.2879V37.2879C15.0302 36.6818 15.0908 36.0758 15.2726 35.4697H2.78778C1.57565 35.4697 0.605957 34.5 0.605957 33.2879V3.2879C0.605957 2.07578 1.57565 1.10608 2.78778 1.10608H19.4544C19.6363 1.10608 19.7575 1.16669 19.9393 1.2879L27.8181 9.16669C27.9393 9.2879 27.9999 9.40911 27.9999 9.59093V13.5909C30.1211 13.7121 32.5454 14.197 33.6363 15.4697C34.5454 16.5 33.9393 19.5909 33.5757 20.9243C33.6969 20.9243 33.8181 20.9849 33.8787 21.0455C34.6666 21.5909 34.606 23.5303 34.1817 24.5606C33.8787 25.2273 33.515 25.5303 33.212 25.6515C32.6666 27.2879 31.7575 28.6212 30.5454 29.4697V30.8637ZM25.4544 30.2208V31.2879C25.4544 32.3788 26.3029 33.2273 27.3938 33.2273C28.4241 33.2273 29.3332 32.3788 29.3332 31.2879V30.1364C28.6666 30.4394 27.9999 30.5606 27.2726 30.5606C26.6282 30.5606 26.0404 30.4474 25.4544 30.2208ZM32.7272 24.5C32.7878 24.4394 32.9696 24.2576 33.0908 23.7727C33.2726 23.1667 33.212 22.5606 33.0908 22.1364C32.9696 22.2576 32.7878 22.2576 32.606 22.197C32.4241 22.1364 32.3029 21.9546 32.2423 21.7121C32.2423 21.612 32.224 21.512 32.2074 21.422C32.194 21.3485 32.1817 21.2818 32.1817 21.2273L31.515 19.7121C31.4544 19.5303 31.2726 19.4697 31.1514 19.4697H30.1211C29.2726 19.4697 28.5454 18.7424 28.5454 17.894L27.3332 18.9243C26.9696 19.2273 26.5454 19.4091 26.0605 19.4091H23.3938C23.212 19.4091 23.0908 19.4697 23.0302 19.5909L22.1817 21.2273C22.1704 21.3068 22.1633 21.3842 22.1564 21.4586C22.1268 21.7814 22.1022 22.0492 21.7575 22.197C21.6363 22.2576 21.4544 22.2576 21.2726 22.197C21.212 22.5606 21.212 23.1061 21.3332 23.7121C21.4544 24.2576 21.6363 24.5 21.6969 24.5H21.8181C22.0605 24.5 22.3029 24.6818 22.3635 24.9243C23.0908 27.5303 25.0302 29.2879 27.212 29.2879C29.4544 29.2879 31.3938 27.5303 32.0605 24.9243C32.1211 24.6818 32.4241 24.4394 32.7272 24.5ZM31.212 18.3788C31.8181 18.3788 32.3635 18.6818 32.606 19.2273C32.8484 17.7727 32.909 16.5606 32.7272 16.3182C31.9393 15.4697 29.8181 14.8637 27.3938 14.8637C24.9696 14.8637 22.7878 15.4697 21.9999 16.3182C21.6363 16.6818 21.9393 18.803 22.0605 19.3485L22.1817 19.1061C22.4241 18.5606 22.9696 18.2576 23.5757 18.2576H26.1211C26.3029 18.2576 26.4847 18.197 26.606 18.0758L28.7878 16.2576C28.9696 16.1364 29.212 16.0758 29.4544 16.197C29.6969 16.3182 29.8181 16.5 29.8181 16.7424V18.0152C29.8181 18.197 29.9999 18.3788 30.1817 18.3788H31.212ZM25.8787 8.98487L20.0605 3.16669V8.01517C20.0605 8.56062 20.4847 8.98487 21.0302 8.98487H25.8787ZM1.81808 33.2879C1.81808 33.8334 2.24232 34.2576 2.78778 34.2576V34.3182H15.6363C16.5454 32.3788 18.3635 30.8637 20.6666 30.8637H24.0605V29.5909C22.7878 28.6818 21.8181 27.3485 21.2726 25.6515C20.9696 25.5909 20.606 25.2879 20.3635 24.6818C19.9999 23.7727 19.8181 21.7121 20.6666 21.1061C20.704 21.1061 20.7646 21.0829 20.8484 21.0509C20.9001 21.0312 20.9608 21.008 21.0302 20.9849C20.7272 19.6515 20.0605 16.5606 20.9696 15.5303C22.1211 14.2576 24.606 13.7121 26.7272 13.6515V10.197H21.0302C19.8181 10.197 18.8484 9.22729 18.8484 8.01517V2.3182H2.78778C2.24232 2.3182 1.81808 2.74244 1.81808 3.2879V33.2879ZM16.2423 37.3485V38.6818H38.1817V37.3485C38.1817 34.6212 36.1817 32.3182 33.5757 32.0758H30.4241C30.0605 33.4091 28.7878 34.4394 27.3332 34.4394C25.8787 34.4394 24.6666 33.4697 24.3029 32.0758H20.7878C18.0605 32.0758 16.2423 34.8031 16.2423 37.3485ZM18.1211 14.5606H4.72717C4.42414 14.5606 4.12111 14.3182 4.12111 13.9545C4.12111 13.5909 4.36353 13.3485 4.72717 13.3485H18.1211C18.4847 13.3485 18.7272 13.5909 18.7272 13.9545C18.7272 14.3182 18.4847 14.5606 18.1211 14.5606ZM15.9393 10.197H4.72717C4.42414 10.197 4.12111 9.95455 4.12111 9.59091C4.12111 9.22728 4.36353 8.98485 4.72717 8.98485H15.9393C16.3029 8.98485 16.5454 9.22728 16.5454 9.59091C16.5454 9.95455 16.3029 10.197 15.9393 10.197ZM18.1211 18.9242H4.72717C4.42414 18.9242 4.12111 18.6818 4.12111 18.3182C4.12111 17.9545 4.36353 17.7121 4.72717 17.7121H18.1211C18.4847 17.7121 18.7272 17.9545 18.7272 18.3182C18.7272 18.6818 18.4847 18.9242 18.1211 18.9242ZM18.1211 23.2879H4.72717C4.42414 23.2879 4.12111 23.0455 4.12111 22.6818C4.12111 22.3182 4.36353 22.0758 4.72717 22.0758H18.1211C18.4847 22.0758 18.7272 22.3182 18.7272 22.6818C18.7272 23.0455 18.4847 23.2879 18.1211 23.2879ZM18.1211 27.5909H4.72717C4.42414 27.5909 4.12111 27.3485 4.12111 26.9849C4.12111 26.6212 4.36353 26.3788 4.72717 26.3788H18.1211C18.4847 26.3788 18.7272 26.6212 18.7272 26.9849C18.7272 27.3485 18.4847 27.5909 18.1211 27.5909ZM4.72717 30.7424H14.909C15.212 30.7424 15.4544 30.9849 15.4544 31.3485C15.4544 31.7121 15.212 31.9546 14.8484 31.9546H4.72717C4.36353 31.9546 4.12111 31.7121 4.12111 31.3485C4.12111 30.9849 4.36353 30.7424 4.72717 30.7424ZM15.9393 5.83334H4.72717C4.42414 5.83334 4.12111 5.59091 4.12111 5.22728C4.12111 4.86364 4.36353 4.62122 4.72717 4.62122H15.9393C16.3029 4.62122 16.5454 4.86364 16.5454 5.22728C16.5454 5.59091 16.3029 5.83334 15.9393 5.83334Z" fill="white"/>
</svg>
